{"title":"Jumanji 2017 720p NEW HDTS x264 AC3 TiTAN  ","magnet":"magnet:?xt=urn:btih:540e963bac2872b0da7e1b2457936060d40b8062&dn=Jumanji+2017+720p+NEW+HDTS+x264+AC3+TiTAN++&tr=udp%3A%2F%2Ftracker.leechers-paradise.org%3A6969&tr=udp%3A%2F%2Fzer0day.ch%3A1337&tr=udp%3A%2F%2Fopen.demonii.com%3A1337&tr=udp%3A%2F%2Ftracker.coppersurfer.tk%3A6969&tr=udp%3A%2F%2Fexodus.desync.com%3A6969","uploader":"makintos13","categoryP":"video","categoryS":"movies","size":"2817257640","seeders":"140","leechers":"111","description":"screens:\r\n <a href=\"\nhttps://imgmak.com/mIn\" rel=\"nofollow\" target=\"_NEW\">\nhttps://imgmak.com/mIn</a>\r\n <a href=\"\nhttps://imgmak.com/mIr\" rel=\"nofollow\" target=\"_NEW\">\nhttps://imgmak.com/mIr</a>\r\n <a href=\"\nhttps://imgmak.com/mIB\" rel=\"nofollow\" target=\"_NEW\">\nhttps://imgmak.com/mIB</a>\r\n <a href=\"\nhttps://imgmak.com/mII\" rel=\"nofollow\" target=\"_NEW\">\nhttps://imgmak.com/mII</a>\r\n <a href=\"\nhttps://imgmak.com/mIq\" rel=\"nofollow\" target=\"_NEW\">\nhttps://imgmak.com/mIq</a>\r\n <a href=\"\nhttps://imgmak.com/mIt\" rel=\"nofollow\" target=\"_NEW\">\nhttps://imgmak.com/mIt</a>\r\n <a href=\"\nhttps://imgmak.com/mI2\" rel=\"nofollow\" target=\"_NEW\">\nhttps://imgmak.com/mI2</a>\r\n\r\n <a href=\"\nhttp://www.imdb.com/title/tt2283362/\" rel=\"nofollow\" target=\"_NEW\">\nhttp://www.imdb.com/title/tt2283362/</a>\r\n\r\nSource: Video: A friend/ A: CPG\r\n\r\nGeneral\r\n\r\nFormat                                   : Matroska\r\nFormat version                           : Version 2\r\nFile size                                : 2.62 GiB\r\nDuration                                 : 1h 50mn\r\nOverall bit rate mode                    : Variable\r\nOverall bit rate                         : 3 410 Kbps\r\n\r\nVideo\r\nID                                       : 1\r\nFormat                                   : AVC\r\nFormat/Info                              : Advanced Video Codec\r\nFormat profile                           : <a href=\"/cdn-cgi/l/email-protection\" class=\"__cf_email__\" data-cfemail=\"d69ebfb1be969ae2f8e7\">[email&#xA0;protected]</a>\r\nFormat settings, CABAC                   : Yes\r\nFormat settings, ReFrames                : 3 frames\r\nCodec ID                                 : V_MPEG4/ISO/AVC\r\nDuration                                 : 1h 50mn\r\nBit rate mode                            : Variable\r\nBit rate                                 : 3 280 Kbps\r\nMaximum bit rate                         : 40.0 Mbps\r\nWidth                                    : 1 072 pixels\r\nHeight                                   : 448 pixels\r\nDisplay aspect ratio                     : 2.40:1\r\nFrame rate mode                          : Constant\r\nFrame rate                               : 30.000 fps\r\nColor space                              : YUV\r\nChroma subsampling                       : 4:2:0\r\nBit depth                                : 8 bits\r\nScan type                                : Progressive\r\nBits/(Pixel*Frame)                       : 0.228\r\nStream size                              : 2.47 GiB (94%)\r\nDefault                                  : Yes\r\nForced                                   : No\r\nColor primaries                          : BT.709\r\nTransfer characteristics                 : BT.709\r\nMatrix coefficients                      : BT.709\r\n\r\nAudio\r\nID                                       : 2\r\nFormat                                   : MPEG Audio\r\nFormat version                           : Version 1\r\nFormat profile                           : Layer 3\r\nMode                                     : Joint stereo\r\nCodec ID                                 : A_MPEG/L3\r\nCodec ID/Hint                            : MP3\r\nDuration                                 : 1h 50mn\r\nBit rate mode                            : Constant\r\nBit rate                                 : 128 Kbps\r\nChannel(s)                               : 2 channels\r\nSampling rate                            : 44.1 KHz\r\nCompression mode                         : Lossy\r\nStream size                              : 101 MiB (4%)\r\nWriting library                          : LAME3.100\u0001&#xAA;\r\nDefault                                  : Yes\r\nForced                                   : No","last_updated":"2018-01-03T12:06:33.890Z","parsed":{"xt":"urn:btih:540e963bac2872b0da7e1b2457936060d40b8062","dn":"Jumanji 2017 720p NEW HDTS x264 AC3 TiTAN  ","tr":["udp://exodus.desync.com:6969","udp://open.demonii.com:1337","udp://tracker.coppersurfer.tk:6969","udp://tracker.leechers-paradise.org:6969","udp://zer0day.ch:1337"],"infoHash":"540e963bac2872b0da7e1b2457936060d40b8062","infoHashBuffer":{"type":"Buffer","data":[84,14,150,59,172,40,114,176,218,126,27,36,87,147,96,96,212,11,128,98]},"name":"Jumanji 2017 720p NEW HDTS x264 AC3 TiTAN  ","announce":["udp://exodus.desync.com:6969","udp://open.demonii.com:1337","udp://tracker.coppersurfer.tk:6969","udp://tracker.leechers-paradise.org:6969","udp://zer0day.ch:1337"],"urlList":[]}}